# xmcd
#
# Track frame offsets:
#	150
#	21520
#	40058
#	61304
#	85364
#
# Disc length: 1395 seconds
#
# Revision: 1
# Processed by: cddbd v1.5.2PL0 Copyright (c) Steve Scherf et al.
# Submitted via: audiograbber 1.83.01
#
DISCID=3b057105
DTITLE=Witt - Auf Ewig
DYEAR=2007
DGENRE=Rock
TTITLE0=Goldener Reiter (Neuzeit Mix)
TTITLE1=Weh-Oh-Weh
TTITLE2=Leben im Staub (G8-Mix)
TTITLE3=Herbergsvater (Danzmusik Mix)
TTITLE4=Unsere Welt
EXTD=
EXTT0=
EXTT1=
EXTT2=
EXTT3=
EXTT4=
PLAYORDER=
